# xmcd CD database file
# Copyright (C) 1993-1998 Ti Kan
# 
# Track frame offsets:
#     183
#     18108
#     30583
#     36983
#     52958
#     75533
#     92233
#     107558
#     122483
#     131808
#     151895
#     169408
#     188658
#     206508
# 
# Disc length: 2939 seconds
# 
# Revision: 0
# Processed by: cddbd v1.4b41PL1 Copyright (c) Steve Scherf et al.
# Submitted via: DiscPlay 4.0.0
# 
DISCID=ac0b790e
DTITLE=Billy Gregory - Its a bluesy day
DYEAR=1900
DGENRE=
TTITLE0=Time and money
TTITLE1=Down at the Barbaque
TTITLE2=Running trough the Bryers
TTITLE3=Sweet Disposition
TTITLE4=Sweet home chicago
TTITLE5=Shake it, shake it
TTITLE6=No more
TTITLE7=Cocaine killed my woman
TTITLE8=Aint got you
TTITLE9=If you dont love me
TTITLE10=Flip flop and fly
TTITLE11=Didnt we ramble
TTITLE12=The bells
TTITLE13=Crackling grits
EXTD=
EXTT0=
EXTT1=
EXTT2=
EXTT3=
EXTT4=
EXTT5=
EXTT6=
EXTT7=
EXTT8=
EXTT9=
EXTT10=
EXTT11=
EXTT12=
EXTT13=
PLAYORDER=
